<svg width="33" height="24" viewBox="0 0 33 24" fill="none" xmlns="http://www.w3.org/2000/svg"><path d="M30.433 23.645a1.984 1.984 0 0 0 1.988-1.98c0-1.093-.89-1.98-1.988-1.98a1.984 1.984 0 0 0-1.988 1.98c0 1.093.89 1.98 1.988 1.98z" fill="#254EFF"/><path d="M.008 22.426c.194-1.816.59-3.605 1.182-5.334a22.796 22.796 0 0 1 2.364-4.935 15.204 15.204 0 0 1 1.728-2.211A9.076 9.076 0 0 1 7.615 8.14c.47-.248.97-.43 1.49-.542a4.83 4.83 0 0 1 1.646-.067c.138.016.272.044.408.071a4.34 4.34 0 0 1 1.176.461c.46.268.876.604 1.233.997a8.472 8.472 0 0 1 1.514 2.447c.35.84.632 1.706.843 2.591a26.718 26.718 0 0 1 .634 3.944c.018.224.032.445.04.675v.355c0 .124 0 .234-.014.35a5.757 5.757 0 0 1-.8 2.746 4.01 4.01 0 0 1-1.02 1.109 3.29 3.29 0 0 1-2.976.47 3.457 3.457 0 0 1-1.308-.8 4.476 4.476 0 0 1-.869-1.21 5.555 5.555 0 0 1-.455-1.374 7.35 7.35 0 0 1-.134-1.395c0-.447 0-.893.028-1.336.05-.889.155-1.774.313-2.65a24.647 24.647 0 0 1 1.515-5.12 23.349 23.349 0 0 1 2.632-4.709c1.082-1.46 2.365-2.833 4.014-3.875A8.326 8.326 0 0 1 20.337.131a8.371 8.371 0 0 1 3.152.051 7.959 7.959 0 0 1 2.908 1.272 10.322 10.322 0 0 1 2.222 2.13c1.238 1.59 2.051 3.356 2.664 5.137a27.785 27.785 0 0 1 1.247 5.482v.02a2.336 2.336 0 0 1-.478 1.729 2.36 2.36 0 0 1-3.302.41 2.341 2.341 0 0 1-.909-1.85 22.652 22.652 0 0 0-.47-4.696 13.797 13.797 0 0 0-1.577-4.244c-.752-1.242-1.76-2.201-3.032-2.63a5.044 5.044 0 0 0-.999-.236 3.626 3.626 0 0 0-.997-.014 5.828 5.828 0 0 0-2.015.67c-1.338.711-2.561 1.816-3.611 3.056a20.153 20.153 0 0 0-2.69 4.144 21.215 21.215 0 0 0-1.682 4.69 19.036 19.036 0 0 0-.471 3.711c-.016.394.005.788.063 1.178.12.759.406 1.489.918 1.991a2.155 2.155 0 0 0 1.887.64 2.442 2.442 0 0 0 1.646-1.213 4.598 4.598 0 0 0 .555-2.195v-.297c0-.1 0-.196-.016-.29a15.84 15.84 0 0 0-.258-1.852 19.813 19.813 0 0 0-.618-2.433 13.913 13.913 0 0 0-.932-2.268 7.094 7.094 0 0 0-1.332-1.849 3.266 3.266 0 0 0-.816-.573 2.467 2.467 0 0 0-.878-.23 3.162 3.162 0 0 0-1.856.476c-.634.386-1.2.872-1.679 1.438a12.89 12.89 0 0 0-1.367 1.929 20.165 20.165 0 0 0-1.891 4.471 22.154 22.154 0 0 0-.871 4.778 1.418 1.418 0 0 1-.957 1.3 1.435 1.435 0 0 1-1.561-.425 1.42 1.42 0 0 1-.327-1.113z" fill="url(#a)"/><defs><linearGradient id="a" x1="-.918" y1="12" x2="32.537" y2="12" gradientUnits="userSpaceOnUse"><stop stop-color="#F0F"/><stop offset="1" stop-color="#254EFF"/></linearGradient></defs></svg>